
<global>
amp_veltrack=0
ampeg_release=0.35
loop_xfade_curve=EqP
xf_cccurve=gain
xfin_hicc1=127
xfout_hicc1=127
xfout_locc1=127
</global>

<group>
ampeg_release=0.45
group_label=PP
loop_mode=loop_continuous
lpc_hicc1=42
lpc_locc1=0

<region>
hivel=127
key=A#3
loop_end=272611
loop_start=103949
loop_xfade=6794
lovel=0
lpc=7Os0QVsc7cEu0AVCFgCewXV/p0B3wGLAdX/iQOy0msBiCBi/KJ1JQC0bFsBqAGw/TkEpvhAXHz7oiWU/OEINwBUoKUACqgXAsDs+PxuuRz64nw6/3AYpPjVWjT10Rz4+
lpc_rms=-41.40
sample=Violin1Solo_sustain_PP_A#3.opus
</region>

<region>
hivel=127
key=A#4
loop_end=273745
loop_start=104382
loop_xfade=6822
lovel=0
lpc=PyPkQCKUeMHG2WRBkG3fwMMmJECf5C7AZEhlQB6Ij8Dsy49Ar6JLwDwcLEAX003ATIWDQG2qe8AH+GVAm1Xhv72sWr+hsBtA1RrNv43cUT22BwW/hd1BP+VgP7+gNjI/
lpc_rms=-38.08
sample=Violin1Solo_sustain_PP_A#4.opus
</region>

<region>
hivel=127
key=A#5
loop_end=268076
loop_start=102220
loop_xfade=6681
lovel=0
lpc=I2sKQXjERcEUnEhBOuDUwEldYUAWzgS+IxUKQG9G9b9nOkdAzExDv8Ne4D7krEZAer4TwJVGxT+cYQVAk8B/vzNkpD+MeM8/fu7Rv+UEG0C7+tQ/AJdAwKoAq0DLTRDA
lpc_rms=-33.54
sample=Violin1Solo_sustain_PP_A#5.opus
</region>

<region>
hivel=127
key=A#6
loop_end=258682
loop_start=98638
loop_xfade=6447
lovel=0
lpc=Y6Y/QdNjUsGtC9dAtscVwEACH0CyqhjAwI71P8dGGMByf+Y/DozfvTo1lD6KkTRAt2lpwAy77cCibzhB1xbPwJBoS0DwYhHAlzg7QMqHCsBy/HlAvRFJwLy6CkBQtde/
lpc_rms=-39.81
sample=Violin1Solo_sustain_PP_A#6.opus
</region>

<region>
hivel=127
key=A3
loop_end=276104
loop_start=105281
loop_xfade=6881
lovel=0
lpc=Ow9dQcGKFcJJlzJC5R7uwW52MUGZ+LjAglIEQbgzo8CV2sW/pW6wQJ7JssD+fHJASh4UwIMWor/PPLdAfTb4wP0fykBeRgnAVnDkvpsUYT96TYi8dScPv3y3oL7sIT4/
lpc_rms=-37.34
sample=Violin1Solo_sustain_PP_A3.opus
</region>

<region>
hivel=127
key=A4
loop_end=276178
loop_start=105309
loop_xfade=6883
lovel=0
lpc=ELILQcR4rcGi9bxBKJ5mwX7qtkCvBFXAL+VUQFQ1MsA4ZPI9dSptQIh8qcDQWJBA29EFwOom1r+liKNAGKanwOR2bkC+lUPA8McRQB//m784tyU/fkr9vubQUz+DAtq+
lpc_rms=-40.28
sample=Violin1Solo_sustain_PP_A4.opus
</region>

<region>
hivel=127
key=A5
loop_end=272977
loop_start=104089
loop_xfade=6803
lovel=0
lpc=fvnNQCED9sCpjM9A0mxSvwb0ojxaEMQ/0rzqPShDNz4jDOc/I3xDPu1NSb4zy8s/GcLHP9dDqr+XodI/LNj8P3rgjr/lGk0/rRAJQDJxc7+I1Lo/tQkxP8+MLL9hUStA
lpc_rms=-36.48
sample=Violin1Solo_sustain_PP_A5.opus
</region>

<region>
hivel=127
key=A6
loop_end=259859
loop_start=99087
loop_xfade=6476
lovel=0
lpc=FVM0QQdrN8G9/pRAFQDgvoRS2D9cWQfANLVXP1Oj6z7hUuG/B2LsP/+nmT/cQpS/lRhXQIN66MCpy96//wICQTHKocB7ctM/emSfv2O1U0BryBLAT7nxPwwBjj4nkpS/
lpc_rms=-37.05
sample=Violin1Solo_sustain_PP_A6.opus
</region>

<region>
hivel=127
key=B3
loop_end=287957
loop_start=109801
loop_xfade=7176
lovel=0
lpc=b3+8QSXAe8JHEpFC6C41wgrmRkF9JX7AW5YyQXgLOMEGdzxAsOnKQGMGJMHp0sxACJONvmGkfcCaIOFA593ywINrCkFSR+bAgVcAQNWaQ0BIzIy/C+bJwDeW5kDmRRnA
lpc_rms=-34.07
offset=16885
sample=Violin1Solo_sustain_PP_B3.opus
</region>

<region>
hivel=127
key=B4
loop_end=272176
loop_start=103783
loop_xfade=6783
lovel=0
lpc=AHJYQVxg28HjHc9BHKRwwdMEDkE4fu3AGfZdQMZngb+w3QtANjIowKU4TkBZma/Azq7CQP0VksBHr6NAZjDFwKYXkkDuylG+4shSwFz1PkASXnq/LQNsP7mTn7/vs/Y/
lpc_rms=-33.14
sample=Violin1Solo_sustain_PP_B4.opus
</region>

<region>
hivel=127
key=B5
loop_end=264840
loop_start=100986
loop_xfade=6600
lovel=0
lpc=EaGuQD7ZrcD1hUVAzQgNvzi5/D7jrbq/KV0eQCVexr84Fj4+RklVP/lB5r11Njq/yxu4P9vSJb+hjmq+7e+CP48V+D2XM8a//XkhQMOg1b8IeFU/rnhnvmyYyz/zaEjA
lpc_rms=-36.31
sample=Violin1Solo_sustain_PP_B5.opus
</region>

<region>
hivel=127
key=B6
loop_end=259450
loop_start=98931
loop_xfade=6466
lovel=0
lpc=g2cLQbyZG8EQo41A+Ku8P7MNGcB68Q0/3DGoP1Gr77+yXKe/JLCqQHUxjsB6qYpA3GgbwWm5BkH/d6O/O+5LwJYwU0B7qNG+9u88vypKvD9HrBBAbMKXwN+vSUDz58W/
lpc_rms=-39.99
sample=Violin1Solo_sustain_PP_B6.opus
</region>

<region>
hivel=127
key=C#4
loop_end=274025
loop_start=104488
loop_xfade=6829
lovel=0
lpc=saDEQVhfhMKSS5xCNm1WwpcirkFd8A3B65nEQHrSNsCRdMQ+zHtxQH2RBcG2pR5B87SswJHEIcCXoRZBhplLwX7lV0HOShLBxfFuP572J0BlPRA/zRazwI0rn0BVfYW/
lpc_rms=-34.28
sample=Violin1Solo_sustain_PP_C#4.opus
</region>

<region>
hivel=127
key=C#5
loop_end=273644
loop_start=104343
loop_xfade=6820
lovel=0
lpc=He26QDuIM8GdaCFBHiG8wFVulUCEuKrATiWQQDcCR8CFOMg/2sKvPYwb2T656a+/zRmMP8SWiL82J6k/qU+hvutVF7/Lm/y9VXSCP2fGyj5ghIi/oXgIPxK4pTy1T8E+
lpc_rms=-39.18
sample=Violin1Solo_sustain_PP_C#5.opus
</region>

<region>
hikey=d6
hivel=127
lokey=c#6
loop_end=267779
loop_start=102107
loop_xfade=6673
lovel=1
lpc=egnWQBNjuMBySgVAg0Bmv6oSuz4JOE69dufyPoIjX75vd7A9tCgaP219N77C+nI9kqG7PusPS73KQDM662EeP3Ivar7mk0y+0DWeP+xlt79rJw5AwTqOwKe0NL/ssRJA
lpc_rms=-39.05
pitch_keycenter=c#6
sample=Violin1Solo_sustain_PP_C#6.opus
</region>

<region>
hivel=127
key=C4
loop_end=273870
loop_start=104429
loop_xfade=6825
lovel=0
lpc=c2QDQqTXtMIi185C5ep0wrxeRUELhUNAg35mQB1OisA70FrAYfM0QWC1dcHn6WNBGVDSwJUEn8AqiVdB3MlNwf/SGkE+rvLA8Ed2QFHWPT9j8si/08yNwFgnAEGBMGHA
lpc_rms=-32.17
sample=Violin1Solo_sustain_PP_C4.opus
</region>

<region>
hivel=127
key=C5
loop_end=275596
loop_start=105088
loop_xfade=6868
lovel=0
lpc=hCRdQdOQA8KukgZC1GqjwctvUUEgWFHBYl08QRg53sBzuRNAmX6gv3zpuz/XnT/Ae4zAQG8j2MCh1dpAo/umwB/5YT+aC6Q/4oqJv8q7OUDfqIjABnWgQPw9hMAB/+w/
lpc_rms=-33.24
sample=Violin1Solo_sustain_PP_C5.opus
</region>

<region>
hivel=127
key=C6
loop_end=270367
loop_start=103093
loop_xfade=6738
lovel=0
lpc=5pohQU3cFcE77+pAROJwwN//zT/9LB49uFIdvu9VJz+idoa/ASApQMhYMsD1YxZAgD5qvVH7z78C+UlAaxE/wH9NHkCRJzm/HeEOPk+THD9qmk6/i4k9QLkWxcBerfa+
lpc_rms=-34.53
sample=Violin1Solo_sustain_PP_C6.opus
</region>

<region>
hikey=E7
hivel=127
lokey=C7
loop_end=264274
loop_start=100770
loop_xfade=6586
lovel=0
lpc=kFPuQDlwCsFNTmNAH7kIQEWaTMCQL7g//iOyvsBRn74kuGy9mEdkP4CwEUC6K+nA0jY/QA44iUCBbqbAxcsBQNBcqj88sq+/iYq/P4mevb5gz0M/sHkuwGETJEBcNbq/
lpc_rms=-43.07
pitch_keycenter=C7
sample=Violin1Solo_sustain_PP_C7.opus
</region>

<region>
hivel=127
key=D#4
loop_end=273348
loop_start=104230
loop_xfade=6812
lovel=0
lpc=YfkkQbJ708HuWeZB4D+RwUJOG0FlPu/Ajm+7QOMNFsCemh0/3KO+vYLrgr+z1PY+mv7CP8SALcAIu5lAycK2wJlSaEDkuibAwUoxQJb5z7+18YW7HCv5PuaGoz5cUgm/
lpc_rms=-38.60
sample=Violin1Solo_sustain_PP_D#4.opus
</region>

<region>
hivel=127
key=D#5
loop_end=271842
loop_start=103656
loop_xfade=6775
lovel=0
lpc=nBnDQKo1U8FXalBBdMzdwNGfhEDXM7HAHUi+QM8KZMDTOpE/xlNlP/+mG8CaOvA/T01rP2EG4L/Tjh8/CyAkP7REi74O85G/G002QOZESsDtlQBAJsT7viOmcj3OnLQ+
lpc_rms=-38.74
sample=Violin1Solo_sustain_PP_D#5.opus
</region>

<region>
hivel=127
key=D#6
loop_end=274870
loop_start=104811
loop_xfade=6850
lovel=0
lpc=ZMZHQV5FT8Hlb7hA9DCPvzH7kL0Dl+W/tUcKQK3qhL8jYlk/h4K0PgQrhb5HtLI+9mE7P5XF0b5WF5A/FNJYvytklz/BRV6/e18bQKyKRMHwAwtBEY5yvuhaCcDEVCBA
lpc_rms=-37.01
sample=Violin1Solo_sustain_PP_D#6.opus
</region>

<region>
hivel=127
key=D4
loop_end=295611
loop_start=112719
loop_xfade=7367
lovel=0
lpc=UZtNQYFVEMLCZTNCr3UBwuVaaUH0F6fALl1bQHueZcCJxm1An8EkwKx1Nz8Ignk/WnGev26z979Pvb5AOAMIwf7aDkHdVKjAu2ztvtbQYEC1wTvA0G8yP9gkwz2/N6c+
lpc_rms=-39.43
offset=11646
sample=Violin1Solo_sustain_PP_D4.opus
</region>

<region>
hivel=127
key=D5
loop_end=269254
loop_start=102669
loop_xfade=6710
lovel=0
lpc=hgetQAwxPcFN7ktBM8YIweQdskAjobLAygicQNHHMsDTqsM/hx48vwuamD5FZ8s9jR2IvkvvvT4aBzI/oumDv8r2oT6xqHA/wMyxv5lqsD+Swfu/MNIYQEANBsBbVqg/
lpc_rms=-39.20
sample=Violin1Solo_sustain_PP_D5.opus
</region>

<region>
hivel=127
key=E4
loop_end=288771
loop_start=110111
loop_xfade=7197
lovel=0
lpc=t4XbQIZlisHh0KRByzF0wcqsEkGRTczAOF2YQFiracBmzBdAIZ+lvjPk8b/+MvU/cL8TPkZ+DMAQnGpArYeUwFDhk0DZ51rAm2UwQK/WGMCyWd4/QM1yv/9vXj8Qo/K+
lpc_rms=-40.51
offset=7864
sample=Violin1Solo_sustain_PP_E4.opus
</region>

<region>
hivel=127
key=E5
loop_end=289527
loop_start=110400
loop_xfade=7215
lovel=0
lpc=lS2uQOJkH8GxQgxBAc9HwIxIEEBIpJHAUvaXQMGG+7/V43w+t8kzv2vDrz9JhK2/hovAP2nqpb9I4vA/y9wLwGYtyD9pwpY/UCsTwO3G4T+61Mu+Y7Z2P5kggL9eSHc/
lpc_rms=-41.24
sample=Violin1Solo_sustain_PP_E5.opus
</region>

<region>
hivel=127
key=E6
loop_end=283748
loop_start=108196
loop_xfade=7071
lovel=0
lpc=AwsaQfcnPsETCeVALrHgv624H7+V8sc93H8JP3zT974cbRo/AQUSPntc+L0rAQQ/5Dk4vWkImT59h5M4C6A1P6escr+jYwxAgMgiwZrDGEHSCE7Aljwjv06BxT8aIoq8
lpc_rms=-40.03
sample=Violin1Solo_sustain_PP_E6.opus
</region>

<region>
hivel=127
key=F#4
loop_end=280363
loop_start=106905
loop_xfade=6987
lovel=0
lpc=vMkrQUqp3MGHmftBXz+lwXmvIUGrivHAgzXqQMk1wsCGc3VA8GxPvzxoWL/7cgG/iMakP5M8b74AKcY/atq6wBFxBEH7FNTAWxctQHABsj0kcg0/r00TwB+qDUAehOe+
lpc_rms=-39.88
sample=Violin1Solo_sustain_PP_F#4.opus
</region>

<region>
hivel=127
key=F#5
loop_end=271998
loop_start=103715
loop_xfade=6779
lovel=0
lpc=Av1AQFAKl8BpO4JAdRwIwCJh5D9zlbi/ZtGgPzXzOztwm1G/Fu3lP0VVwr/PXqU//rqSv9AnZz+kv0W+Ocm2PkxGFb9BTkM/goRBvl4ME7/Gzww/toO4vXfKmr29iAQ+
lpc_rms=-40.86
sample=Violin1Solo_sustain_PP_F#5.opus
</region>

<region>
hivel=127
key=F#6
loop_end=281525
loop_start=107348
loop_xfade=7016
lovel=0
lpc=RF9GQa6kTcGPkf9ABbvxv4ggvL+zfe0+Akh6P3wwx7/Fp4s/gBEqPzT3lr6ahYY/S1MZPs1yDj9Elo2+Yq4vQP4GS8HHRRtBn/kdwM8z2b+8FHBA9II8v1MuWD7j834/
lpc_rms=-37.63
sample=Violin1Solo_sustain_PP_F#6.opus
</region>

<region>
hivel=127
key=F4
loop_end=275309
loop_start=104978
loop_xfade=6861
lovel=0
lpc=XFpBQUC0/sFJ9BJCbnjIwQNkXUH66jbBQcAxQTQoA8G07oRA0EwQwLr6VUCJfrnA+2LlQGiH3cAhCsVAI7+NwM0soD++9sg/N6mlv7+wxD4qu7O/w0AWQC/Pxr9qxQQ/
lpc_rms=-35.97
sample=Violin1Solo_sustain_PP_F4.opus
</region>

<region>
hivel=127
key=F5
loop_end=266969
loop_start=101798
loop_xfade=6653
lovel=0
lpc=NtmHQF1H6MCuR85AdjphwMnuHUApDM6/eTYSP4XBLj8eSJm/x73pP/Zdzr+BJ2s/MhPoPQJxYL/bwZs/shB9v0I4fz+1slk/nbXdv+5wuz+BJiC/32QRP1nOw76EKsE+
lpc_rms=-38.38
sample=Violin1Solo_sustain_PP_F5.opus
</region>

<region>
hivel=127
key=F6
loop_end=273423
loop_start=104259
loop_xfade=6814
lovel=0
lpc=enAIQShXD8GiCrNARvcSv7Z9LcA2tfM/WUJ1vwtLcT56UKs9QekiP3H3U723sbc+jtftPoSgzL7xkIM/K0vEvpxDlT8i+AHBvefjQGufLsCvo52/6n6AQI9F+b+RLag/
lpc_rms=-39.27
sample=Violin1Solo_sustain_PP_F6.opus
</region>

<region>
hivel=127
key=G#3
loop_end=274540
loop_start=104685
loop_xfade=6842
lovel=0
lpc=aI4AQp8To8ImT65CASVEwjCiWUH+i/XARPgpQQ/ofMAToGTAQODAQLuA5cDR1fJAGDzcv5LjDcF/819B2Aolwb9YC0HrpxrBGRW7QEqQ5j8wcGTAS++LwAsV7EC0Jt+/
lpc_rms=-33.79
sample=Violin1Solo_sustain_PP_G#3.opus
</region>

<region>
hivel=127
key=G#4
loop_end=273600
loop_start=104327
loop_xfade=6819
lovel=0
lpc=zGWbQaDzQcJ1aF9COaoXwgE7iUHMqRDBMuAEQcoO4sCy6Im+rCgrQdpVfsHKBlBB1ufCwL+pJb8Tt79A9qYTwfc5EUGNoMTApuyJQHiwWMDmDhk/HUGtP3J4Zb8Tmp0/
lpc_rms=-32.28
sample=Violin1Solo_sustain_PP_G#4.opus
</region>

<region>
hivel=127
key=G#5
loop_end=273519
loop_start=104296
loop_xfade=6817
lovel=0
lpc=sDLTQKnTEMGBct5AYwU7wP73MUC6ep2/KK1oP5i76b6Lu4I/lmm/P7RIt78ZXKY+CEzyP0zaxr8DsSpATMs9v0UmtT5VBXw/HQLFvzReQkAOkXW/SliFPocU6L5sOP8/
lpc_rms=-38.60
sample=Violin1Solo_sustain_PP_G#5.opus
</region>

<region>
hivel=127
key=G#6
loop_end=270781
loop_start=103252
loop_xfade=6748
lovel=0
lpc=81VhQf06QcHdLP4/1hh9QDuxpruUGMW/dsNoPQJ93b+frcA/hK9RP4f0lj1bpOE/XiSTv3mVeUBFvznB7MknQLM3+0D8oM3AcUv8PjBt5D8A4BA/Cx0QQEtGJj5w0O6+
lpc_rms=-34.63
sample=Violin1Solo_sustain_PP_G#6.opus
</region>

<region>
hivel=127
key=g3
loop_end=267144
loop_start=101865
loop_xfade=6658
lovel=0
lpc=axifQcb7bMKSkZpC9ZxdwjdppkFYd2nAcVJXQOxdgMD5ZVI/XzF5QOGZEcHBexpBIUOCwBTkDsA2XYxAdXhcwBLmY0BI9JjARRF4QMWCMj/USHTAKgTRP9ackz8y2QK/
lpc_rms=-36.62
sample=Violin1Solo_sustain_PP_G3.opus
</region>

<region>
hivel=127
key=G4
loop_end=281644
loop_start=107394
loop_xfade=7019
lovel=0
lpc=GJsZQb1bzsGrU/ZBKzeywTdiWUGv+CfBPlwgQWc7DsEtXpZA8CPQP11VgMBJQp4/rkoAvgL+1z6regtAg1SpwGlL1UB9Y83AmPqDQGTmob8KeUI+Rr+Lv4KW8D+uBkK/
lpc_rms=-37.40
sample=Violin1Solo_sustain_PP_G4.opus
</region>

<region>
hivel=127
key=G5
loop_end=272442
loop_start=103885
loop_xfade=6790
lovel=0
lpc=s5RjQPCEuMCT/5dAPSnbvz7XLj8ZRRG/jzGtP+gVO7/aIxc9Irs6P9eM/L0qmBA+HRvBvci/tD4zthA+2NHgPdO0c70OboE+G/4FvUpTrT5JqmO9UlqWPtlWFb+AZ2Y/
lpc_rms=-35.49
sample=Violin1Solo_sustain_PP_G5.opus
</region>

<region>
hivel=127
key=G6
loop_end=263774
loop_start=100580
loop_xfade=6574
lovel=0
lpc=+yNIQWeiOsGt5UJAHehMQI6dLMAqXNs/GWmZv3sPJb8L17I+9PJQPybWfD25RHE+hISiP3oPnb8i/jtAwxwxwbVMmUB3CaRAksTRwFyJTkDLBLm+QcXYPtQy3j8Yixu+
lpc_rms=-35.86
sample=Violin1Solo_sustain_PP_G6.opus
</region>
</group>

<group>
ampeg_release=0.45
group_label=MF
loop_mode=loop_continuous
lpc_hicc1=84
lpc_locc1=43

<region>
hivel=127
key=A#3
loop_end=277224
loop_start=105708
loop_xfade=6909
lovel=0
lpc=PiggQd+b28GBwghCdCHHwSAINUHS95LAbtVIQKPxKcBtYEJAvT9OwPrCXD9lNENAhXlowMFxyT31oElA8i1pwLflWECVsCTAuutgP+D+V73O22Y/uU/iv6fbuT9nXdS+
lpc_rms=-30.04
sample=Violin1Solo_sustain_MF_A#3.opus
</region>

<region>
hivel=127
key=A#4
loop_end=266323
loop_start=101551
loop_xfade=6637
lovel=0
lpc=Ji7vQKoviMGhcXtBXtTdwL5uRUBjfLHAVkrlQMT8y8CihZdAJdctwFO8jT5abrw/L76Iv/UPG7/b8idAJW4ZwBg6iD4E5QZAXsoTwO0Jkj7OQ0E/YLOevscrm75pbb0+
lpc_rms=-31.33
sample=Violin1Solo_sustain_MF_A#4.opus
</region>

<region>
hivel=127
key=A#5
loop_end=271630
loop_start=103575
loop_xfade=6769
lovel=0
lpc=AecIQX/J3sB0IftAS4MvvyLzpD+LzvY/YgUjQAAxlb7zvi5AjO3gPwKOZz9JhDNA3f5FP7r42T+JthFAXWV9PzP09j8DLQRA/ZUDP58/CEDpQiRAZvIOvwXBSEDDbwNA
lpc_rms=-26.16
sample=Violin1Solo_sustain_MF_A#5.opus
</region>

<region>
hivel=127
key=A#6
loop_end=254288
loop_start=96962
loop_xfade=6337
lovel=0
lpc=VRsoQWi44MD23F1Apo8WvpjRUz+eIM6/WAcwPgYFSb+cEa0+3moFQDPcTT9Niuo/R1wZwLg788BvFOZAUoCBwCFmwj9wPkC/5dIUQIy3xL3GNs4/G94Ev9JuqL/g+1q/
lpc_rms=-33.52
sample=Violin1Solo_sustain_MF_A#6.opus
</region>

<region>
hivel=127
key=A3
loop_end=278844
loop_start=106326
loop_xfade=6949
lovel=0
lpc=OgZTQUa/DcLVMTBC2WkCwsm1bUFMn5jALYD/P6coX7+xbBo/nzk6P0lOcsBXQadAGXFgwNOgxL8e9ZFA1bF8wBCUa0CabVXA1j0AQMYRRj9P3Pq/HCh2P3uxSL9eTn4/
lpc_rms=-28.51
sample=Violin1Solo_sustain_MF_A3.opus
</region>

<region>
hivel=127
key=A4
loop_end=275321
loop_start=104983
loop_xfade=6861
lovel=0
lpc=f/soQRLL18GJKe9B5/KSwanI/0CjopvApVuAQPCmr8AO9PhA4TvMwAIQxT87j/E/63JXv/7Db8CVuQBBEVIFwT3qrkAbqTPAgqUEQMzff78HChK+DAwMPz5uAz55tK2+
lpc_rms=-30.03
sample=Violin1Solo_sustain_MF_A4.opus
</region>

<region>
hivel=127
key=A5
loop_end=274478
loop_start=104661
loop_xfade=6840
lovel=0
lpc=QV7nQI1r+MDppuBAV4uMv5GFlj8bAzc/ZhvJP0SSyj09Abo/Xx6zP59R6b4XzgVAxsmUP7pjlb7C/ts/vyO0P6Aubj42/0Q/k0gHQErAnr7NvcU/wlD5P5uoDMCba4pA
lpc_rms=-25.04
sample=Violin1Solo_sustain_MF_A5.opus
</region>

<region>
hivel=127
key=A6
loop_end=268551
loop_start=102401
loop_xfade=6693
lovel=0
lpc=wUBwQQFSOMEaMGdAT1OhP5YILkDo0Vc/6EnBvk5Dtb+isIBABpQlQADrGj9Zg+S+WUWCQAs+AcETBaHAq68lQSCqrMAPGKU/VdlGwPoQlz/SCNU/5/wPP83UfMCMqX6+
lpc_rms=-26.67
sample=Violin1Solo_sustain_MF_A6.opus
</region>

<region>
hivel=127
key=B3
loop_end=272747
loop_start=104001
loop_xfade=6797
lovel=0
lpc=8WuQQS1vQsJkDnFCEkYywi2WkkH8z4rA/iiLQM1inMB8UDFAI9l7PhUzdsCCj6tA6u5VwC15OsAKSQVB/aPswL/moECz00bAFRQ3QCLcUMDo7lxA/8VzwBtRF0B9mT2+
lpc_rms=-24.04
sample=Violin1Solo_sustain_MF_B3.opus
</region>

<region>
hivel=127
key=B4
loop_end=265041
loop_start=101063
loop_xfade=6605
lovel=0
lpc=MupMQdgj58FGuN9B0p9twZfA6EA6dxLBfssKQX8QpcDwMZZA2nJ+wA8emj4f3YNA/7O6wKbXOEDbD9c/wcwJwGswurzxNxM/eE4IQEkTfcBro0VAuMy1v2aRRz6WKiA/
lpc_rms=-23.15
sample=Violin1Solo_sustain_MF_B4.opus
</region>

<region>
hivel=127
key=B5
loop_end=264850
loop_start=100990
loop_xfade=6600
lovel=0
lpc=tQchQShCJMErMxVBvGaLwBCsd0DL0sW/HxlEQB/xtL/3lxpA8OoQP/WsRL+CiHBA8QAjwJdrXUCvORK/icEeP6ynJkDBbAbAathvQIjKAMAao2dA7HYowLKLskCzMqjA
lpc_rms=-26.37
sample=Violin1Solo_sustain_MF_B5.opus
</region>

<region>
hivel=127
key=B6
loop_end=255084
loop_start=97266
loop_xfade=6357
lovel=0
lpc=RBtoQXe8TcEic2pAZfFtQFklLsAjWLc+VoUQPnml4z7sLzq/v03XQDUFYsC38fw/RXxewQLFKEFXfGU/Iv6iwG+4cEDZVmU/uRoAP8whAL5k2AJAgl+mwKYkEUB2w5I/
lpc_rms=-32.55
sample=Violin1Solo_sustain_MF_B6.opus
</region>

<region>
hivel=127
key=C#4
loop_end=266715
loop_start=101701
loop_xfade=6647
lovel=0
lpc=rnC2QUi7f8KMlqBCIfFvwspb4UE5hVTBdqM3QRCVI8FCHAxBIR+cwATDyL/FiWNA7dxoPT/fXsBrAi9AeegAP7bzVj4YSnm97VHJvwMDgkBbJvHAySIGQSzd28Bmdi5A
lpc_rms=-21.86
sample=Violin1Solo_sustain_MF_C#4.opus
</region>

<region>
hivel=127
key=C#5
loop_end=274422
loop_start=104640
loop_xfade=6839
lovel=0
lpc=0ow3Qcl+zMGLFstBpO9ZwXE+n0Dx3KLA7R65QJiGYMCSuaM/CxOuPri0EMACjjBABO/wPhFUQcDldmJATi/5v4oCVj4xdzQ/ReBQvyJGk75cV8M/8/bmvgs3YL9INY8/
lpc_rms=-25.41
sample=Violin1Solo_sustain_MF_C#5.opus
</region>

<region>
hivel=127
key=C#6
loop_end=265323
loop_start=101170
loop_xfade=6612
lovel=0
lpc=5VQGQZYOr8ArellATT/0v0c6AUDLpX6/b1PUP69qmb7oUtk+cAwMP29msz42HDc+d5c5P27aSD58FgY/ZdZ1Pk0jGT+2Abi+uT3lP0p6rL/qYTNAPY6qwGrrmr+yOsI/
lpc_rms=-31.22
sample=Violin1Solo_sustain_MF_C#6.opus
</region>

<region>
hivel=127
key=C4
loop_end=275465
loop_start=105037
loop_xfade=6865
lovel=0
lpc=7EwIQp9PwsKZ5u5CsxGmwgcn/UG7ZSvB7OVXQQneLMGlKBdAUYTBQJ1tRcEmlA9BKKLNP7OiFME1mjxBPhQxwUujF0Gd/KzAeQQGvS/QQ0CVMLK93ct9wMDRdEAFxM6/
lpc_rms=-21.34
sample=Violin1Solo_sustain_MF_C4.opus
</region>

<region>
hivel=127
key=C5
loop_end=277327
loop_start=105748
loop_xfade=6911
lovel=0
lpc=2SJ+QQSEBsJa5/VBuTKFwZCq+EBtHOHA+cDGQCaracA8qoU/Oz2IPrv3fj4jo/C+su8HQCIzgcCPlw5BZZ4JwdW7nD+prAJAa1Zsv4ze3z7O2SK/GHIdP8EfhL/W39M/
lpc_rms=-22.62
sample=Violin1Solo_sustain_MF_C5.opus
</region>

<region>
hivel=127
key=C6
loop_end=272981
loop_start=104090
loop_xfade=6803
lovel=0
lpc=hlkoQT+yAsFSpsFAJO+mv7UOkj9GSCq/r8nMPztt4D5/N5W/3Uo+QBWPzL/R6Mw/H7wBPaGXZz7k/es/duHbv9fbKkB3wDO/tpfDPjnglD+UVtG9ye2mP9a5ScBpDRrA
lpc_rms=-29.28
sample=Violin1Solo_sustain_MF_C6.opus
</region>

<region>
hikey=E7
hivel=127
lokey=C7
loop_end=266431
loop_start=101593
loop_xfade=6640
lovel=0
lpc=UnMIQSjascCNeghAj+eHPoUSLb+GKIE/5dQzvUiOGT95QD2+2gozQAmQBECc5hnBxviaP3QgTUDcShPA3XoVQG2ZKL7QgBc+qfQlPyGaZT5/kDC+MJNCwK5DhkBfQPW8
lpc_rms=-35.69
pitch_keycenter=C7
sample=Violin1Solo_sustain_MF_C7.opus
</region>

<region>
hivel=127
key=D#4
loop_end=266710
loop_start=101699
loop_xfade=6647
lovel=0
lpc=I/vhQL4djcHULJlBA4svwearakCjKey/jv44QNucdcATgnFAxBwUwBUpEj8iWOI9icgdP8CP0r/blyRAGP4jwLZypz8cag2/d6VbPwEHU7+sFP0+k6EovuDv0rwYamm9
lpc_rms=-30.53
sample=Violin1Solo_sustain_MF_D#4.opus
</region>

<region>
hivel=127
key=D#5
loop_end=268213
loop_start=102272
loop_xfade=6684
lovel=0
lpc=SJKbQGNiJMFoMxhBFg10wHbeoD9dp03AQuefQL+EesBcYuU/PWy0PJiEd7+zzKc/QRkqv1iNeT51Z22+7yyYP2VG9b+6mqA/9ElxP2c7F8CYDtw/YNArPsg5bb8qszg/
lpc_rms=-33.06
sample=Violin1Solo_sustain_MF_D#5.opus
</region>

<region>
hivel=127
key=D#6
loop_end=267037
loop_start=101824
loop_xfade=6655
lovel=0
lpc=8FweQZQN+cAX2UFA0Lv+P+fb2z48D/29iQr/PibhNz0eigs/fKg2PxVMxb7o6v8+QnxnP8gYy773+o4/Qv00vyDDtz/K/yK/HhQFQFvbEcGlSINAmLq2P9+xbsBO+CA/
lpc_rms=-30.56
sample=Violin1Solo_sustain_MF_D#6.opus
</region>

<region>
hivel=127
key=D4
loop_end=273185
loop_start=104168
loop_xfade=6808
lovel=0
lpc=RNdlQQqKH8IYW0VCOv4QwjkfkEFPMR7BlcoMQcQp0sB8yo9Az/RDwB00Wr42UP4/GHLnvfN7f8AqE+NAjNXZwBwUpkCvboXAxjQMQJBPrz+9eS3AqkT2Pug/MD9bEpw9
lpc_rms=-27.74
sample=Violin1Solo_sustain_MF_D4.opus
</region>

<region>
hivel=127
key=D5
loop_end=270295
loop_start=103066
loop_xfade=6736
lovel=0
lpc=zt4CQTUvlMG07pFBuSkWwbrNe0AzLqzA7FDjQKW+rcD6WwRAQgfvP37SRcCnlc8/yXAePlMdYr8nSyFALMMiwPEGQj8odkw+g0wIPz+xab/YvJ+92Oo8P7fKX78KGYk/
lpc_rms=-26.14
sample=Violin1Solo_sustain_MF_D5.opus
</region>

<region>
hivel=127
key=D6
loop_end=270723
loop_start=103229
loop_xfade=6747
lovel=0
lpc=TqiBQT6/ZcHxTmBAaSnIQKTI1b9rxx5AZjhkvhXx6D/zeXG9iifRP6lGGL4E2AZAP+gBP4+NxL6/ujhADT9Av2HY0T/2HwA/nns+P3XaQEBsIEHBN4pMQDcB7kCZ49fA
lpc_rms=-23.33
sample=Violin1Solo_sustain_MF_D6.opus
</region>

<region>
hivel=127
key=E4
loop_end=272911
loop_start=104063
loop_xfade=6801
lovel=0
lpc=TkjZQORjg8E6m4lBGVwNwYgwCkAk9M6/JMcWQLENtb+sW5C+XqVLP9ZXNr95jbk/JxqSv1PxMr+c8y1AK5hPwG6oYEBuP27AkU1JQH187r87YTQ/E1VVvfgprb1+AiA9
lpc_rms=-33.33
sample=Violin1Solo_sustain_MF_E4.opus
</region>

<region>
hivel=127
key=E5
loop_end=266932
loop_start=101784
loop_xfade=6652
lovel=0
lpc=eruQQCLfBsGTgwFBp459wFRP9T9OfQDA1yYmQLr++79SJYs/m40MvyAzzT5h9eO+PfbVPieY0r5Q1Yc/HLuGv4DFcz+Wwj2+Q2XJPaksPj52oLg+uM0qPamLozy/8XI+
lpc_rms=-32.72
sample=Violin1Solo_sustain_MF_E5.opus
</region>

<region>
hivel=127
key=E6
loop_end=269715
loop_start=102845
loop_xfade=6722
lovel=0
lpc=r3sQQVIw/8CwMZBApbW6P5dqi751rl4+vRrEvC8UFT9RiPe86OBzP/JYmL6LaBs/SxrnPka6eT56A849MsObPwLfUb9fcOo/eN4EwT+3rECFB1a/o6BAwKjGYD82a7M+
lpc_rms=-31.85
sample=Violin1Solo_sustain_MF_E6.opus
</region>

<region>
hivel=127
key=F#4
loop_end=270487
loop_start=103139
loop_xfade=6741
lovel=0
lpc=etUiQThnzsEPzuxBkXSYwZ+1u0CRbJ49X0mIPyMVfsCfnSlA9N/0P45glcBI9oVAlIMowE7q6z7vSzBArp+TwNdpVkBK1++/o8nUP1l0CcC9PCtAhUeyv44RlDs1Gdo+
lpc_rms=-30.35
sample=Violin1Solo_sustain_MF_F#4.opus
</region>

<region>
hivel=127
key=F#5
loop_end=266569
loop_start=101645
loop_xfade=6643
lovel=0
lpc=t2M/QOlrocATfJBAd9Ltv8lwKT8WYSG/0m5bP9D9k77BV6K85ToHP7zm+b7iEDg/r1tKv6skkT/mufe+3g+pvgiJij8ZpH6/vPJZP4aYor2XPOy+c8BRPxGrpL5aUHI+
lpc_rms=-31.49
sample=Violin1Solo_sustain_MF_F#5.opus
</region>

<region>
hivel=127
key=F#6
loop_end=270685
loop_start=103215
loop_xfade=6746
lovel=0
lpc=znklQXKQ5cB9z4RAoVAHPwBpJL8uz4s9izBGP/xnmT2koYE+lOELP1zaWj+uEOI+5fvXPnQgSj/vOn89TpMAQDK5G8G4HKVASYNkv6Qry7/R+80/ULsXP31BFL8H6HM/
lpc_rms=-31.32
sample=Violin1Solo_sustain_MF_F#6.opus
</region>

<region>
hivel=127
key=F4
loop_end=273420
loop_start=104258
loop_xfade=6814
lovel=0
lpc=QP4NQdKitMG2iMpBKNB/wf41xUC+CSXASkkkQH89acB1WW9AONUKwBGFt72aJABAgH7zv9lEdr9zmYFAVshfwDwjsj/wmzm/4jT1Phz74z5qqFW/7tJIPlk8KT11fz4+
lpc_rms=-32.01
sample=Violin1Solo_sustain_MF_F4.opus
</region>

<region>
hivel=127
key=F5
loop_end=264809
loop_start=100974
loop_xfade=6599
lovel=0
lpc=ye50QDS8vsDEeqpAtRo9wFwOA0AlrcS/5fqAP/gyzr41QGu91SuTP4NNar+OQW4/ncSMvyoQgT8GbUY+KVZuvsSBSD6skHG+i9FDP0dwwL6VLlU/Ul2Mv3PQNT++rQk/
lpc_rms=-30.40
sample=Violin1Solo_sustain_MF_F5.opus
</region>

<region>
hivel=127
key=F6
loop_end=269624
loop_start=102810
loop_xfade=6719
lovel=0
lpc=CG4dQbPU7cChcQRAI3YQQNtr47/cqLM+rSNUv4cEoD7bGtY+3yMCP4YYKj8tsK++o+9wP0Z1Sry/HmI/HOGLvqBk1j/8NhLBvV6eQLtrkz9g3krAw94HQJLGpD4QQp4/
lpc_rms=-34.88
sample=Violin1Solo_sustain_MF_F6.opus
</region>

<region>
hivel=127
key=G#3
loop_end=272801
loop_start=104022
loop_xfade=6799
lovel=0
lpc=GkWUQXhjTcICOYVCWW1Wwmc64kGaPTrBZ0TpQMa1ucDY5QhAaccEQJ4il8ANCb1AQb3SwFW3iUCqRTs/WcWGwJCRm0DoGinAOPWjvlMbD0Ds8Pq/n2kZP9XQC7/cu3Y/
lpc_rms=-26.21
sample=Violin1Solo_sustain_MF_G#3.opus
</region>

<region>
hivel=127
key=G#4
loop_end=276558
loop_start=105454
loop_xfade=6892
lovel=0
lpc=4DORQTQnN8Kmy0pCVu//wUNsc0G2zTjBhUskQcws38BSoSFA6O6MvRH1Qj+H/mrAl74DQd7LHsEwfx1BJewHwbC7v0DUyovAMY1RQHjYyL81TxrARjDQQDFRysALPUJA
lpc_rms=-23.48
sample=Violin1Solo_sustain_MF_G#4.opus
</region>

<region>
hivel=127
key=G#5
loop_end=263775
loop_start=100580
loop_xfade=6574
lovel=0
lpc=EReeQM9H+sDbufBAJX1QwHYDrD8G9HG+l1ONPxNiRL8ugWE/z/VuPnDj8L2CAFQ/kbb3vraK7j5srLk/E5VWv2htiz5K4bA/nZ0tv4m20T5uxzo/xan0PrREob+O1OE/
lpc_rms=-29.16
sample=Violin1Solo_sustain_MF_G#5.opus
</region>

<region>
hivel=127
key=G#6
loop_end=268442
loop_start=102360
loop_xfade=6690
lovel=0
lpc=mt0gQWZXlMAvb5w+39ciQD/GMsDkpvs/L+BpP9KT0b/buNA/AV7NP7U4hbz5pLA/VClyvni7GEAjFsbAWVEwwBGQsUAoNlbAw9LgP4656D93TxrAhogMQOzgFD95Rse/
lpc_rms=-31.17
sample=Violin1Solo_sustain_MF_G#6.opus
</region>

<region>
hivel=127
key=g3
loop_end=276945
loop_start=105602
loop_xfade=6902
lovel=0
lpc=2T53QYakO8LQYXtCGNA8wsR6sEHgjDTBvYFGQQl2NMH09qhAkmz4PtSKv8BtbhhBOLMMwQuLwUCiUSrAc/xFvyfoK0AnZj/Afv4TQINoGD5WYVrAosCtQMUXjsDmBNk/
lpc_rms=-27.54
sample=Violin1Solo_sustain_MF_G3.opus
</region>

<region>
hivel=127
key=G4
loop_end=274578
loop_start=104699
loop_xfade=6843
lovel=0
lpc=X+QdQe4N1MGTX/NB9EuJwVVhJUCOQvs/AZ2ZP4yJwcBxA91Aqyo2wGGeYb/l/0g/PWqlP+g+VsCf9KhAQgy2wGN1lEBOfH7AERdtQMc9MMCdDHM/LPgnP0iglL99OEo/
lpc_rms=-30.16
sample=Violin1Solo_sustain_MF_G4.opus
</region>

<region>
hivel=127
key=G5
loop_end=267940
loop_start=102168
loop_xfade=6677
lovel=0
lpc=OuRoQCVbqMDX+Y1Akyhqvxe2ir6XqdM+GEWBPwPFsr96TiQ/pv1SP97z/L4cspO+8GBLP8C3Qb/A5p8/clhwvulwGj+Qo5y+UfWNPhnXHD8DIBa+2s8QPyyBTb9iVC0/
lpc_rms=-30.37
sample=Violin1Solo_sustain_MF_G5.opus
</region>

<region>
hivel=127
key=G6
loop_end=273075
loop_start=104126
loop_xfade=6805
lovel=0
lpc=ATo/Qfh+AsEXXhBAlBF4QB6nL8ATmT0/l/GTP1cYBL8nNIu/c6IQQBx0P7+3p98/dDUuP4R2oj3F4zlA/zwlwZhHakATKlhAg/6TwPvhCEBz4AZAitDGv2gluD/xaMc/
lpc_rms=-29.72
sample=Violin1Solo_sustain_MF_G6.opus
</region>
</group>

<group>
ampeg_release=0.45
group_label=FF
loop_mode=loop_continuous
lpc_hicc1=127
lpc_locc1=85

<region>
hivel=127
key=A#3
loop_end=272732
loop_start=103995
loop_xfade=6797
lovel=0
lpc=4nkDQcmcqcHtntFBMxKdwVw8G0GJZMLAPSDYQLQjysDT6EpAv7GBPU1Agr/4XsQ+VGgJPyqIpL9A+DNAbmBmwAF9Q0B5cuW/DJ+JP72ZSb9XWJw+MDsIPufYzb6iG8g+
lpc_rms=-23.73
sample=Violin1Solo_sustain_FF_A#3.opus
</region>

<region>
hivel=127
key=A#4
loop_end=271973
loop_start=103706
loop_xfade=6778
lovel=0
lpc=qtK7QMhbRcFR0ixBOaSkwDmEJUDvllvAVbN/QKwmdcArPD5AIMOUvy6Ltj0vvFm/xGQUQH/5O8DOd0lAarsOwGjJJT9ebcM+9gqrvupg/z6S3KC/2Eq4P6+OgL+ddQc/
lpc_rms=-22.83
sample=Violin1Solo_sustain_FF_A#4.opus
</region>

<region>
hivel=127
key=A#5
loop_end=270440
loop_start=103122
loop_xfade=6740
lovel=0
lpc=Gq0uQQkWOMGUkVVBL0OawMhUkkChEtk+n/VjQPu0Q74s309AISLfP7uCXz8PFSFAtNbmPy3cQj/fMIVA/5aIv5X3iEBOlu0+j/oOQLyb0D9vtzJA+rV3vm4jfUC/GMU/
lpc_rms=-17.32
sample=Violin1Solo_sustain_FF_A#5.opus
</region>

<region>
hivel=127
key=A#6
loop_end=274289
loop_start=104589
loop_xfade=6836
lovel=0
lpc=0M8XQUismMCF96JAtoAFPqyfCEBB0gjAwV5LQNLS5L6SwO8+GxcPQLbEKkCX3QtAjzq1v0yp1sBfH55AsJ+PwBfYkD80LKy/N35AQBr5L8AbwOo/MIklvq5enL8HciLA
lpc_rms=-25.99
sample=Violin1Solo_sustain_FF_A#6.opus
</region>

<region>
hivel=127
key=A3
loop_end=271858
loop_start=103662
loop_xfade=6775
lovel=0
lpc=Wlb0QKDanMH9Kb5BNpuHwZ4d3ECKug7AXVVFQCO3isDKaktACpBFO7rBIsBhoPE/dm1kPmz19r8PVyNAm48MwLp0uD9w+Si/eIpPPxRckb9N/ak/Vg+Xv57vVj8Wzw6+
lpc_rms=-24.61
sample=Violin1Solo_sustain_FF_A3.opus
</region>

<region>
hivel=127
key=A4
loop_end=278226
loop_start=106090
loop_xfade=6934
lovel=0
lpc=i+ABQT/0ocG3TLNBbbphwVtvxUACg3LAEHYjQFZKKb+shBK/axnpP2eTXcDx1UVAwD0Sv1k8BMBL7IFAs+2PwLJTaUArhvu/T7aSPl4ZjD+sVKS/GuZRP631Wr7ympO9
lpc_rms=-22.75
sample=Violin1Solo_sustain_FF_A4.opus
</region>

<region>
hivel=127
key=A5
loop_end=272042
loop_start=103732
loop_xfade=6780
lovel=0
lpc=8XfpQBTYAsGPsABBjTgRwCA11z+/4ok/nSWqP9cxkb6x/dQ/03u8P+Afr73wM7Q/eBqWPwxR4T78gLk/+m1zP47YqT68i6E/zLDlP0O42b3sTmE/K+00QO5NIcCclYZA
lpc_rms=-19.12
sample=Violin1Solo_sustain_FF_A5.opus
</region>

<region>
hivel=127
key=A6
loop_end=269507
loop_start=102766
loop_xfade=6717
lovel=0
lpc=/oIeQcaolcBvo1RAjVs3QB6WcL5ESZE/TuItPlscQEAkUvK/Mk0IQKziWkBWbxG/2cZvQOH/lcDCr1nAuzCjQABGjMD/wW8/kfq1vNtHtz9Edm+/oc0iPgWrJ0Bv5CrA
lpc_rms=-23.93
sample=Violin1Solo_sustain_FF_A6.opus
</region>

<region>
hivel=127
key=B3
loop_end=269350
loop_start=102706
loop_xfade=6713
lovel=0
lpc=0jZlQXPoF8KlBjdCG+cEwoibd0EdpvHACHYJQf7CGcGUMvZAJc9EwNoIMcB35J5AXs5AwM1/AL9Cd1VAuOFiwNoPKkBhfLq/XfQcP5+QDD8yKIm/jEETP1iHVL5SUHM+
lpc_rms=-18.38
sample=Violin1Solo_sustain_FF_B3.opus
</region>

<region>
hivel=127
key=B4
loop_end=279243
loop_start=106478
loop_xfade=6959
lovel=0
lpc=DNUlQQObtMG51qpBFZwtwXOJmUA4WLDA8rDBQN96t8Bd6ppA72rpv/HNyL/Z3gFATwDNvmOoqL9q32RAJqZpwM0E0z/C5g4+sTIovwc9qz7znKK9MU5nPsm16D3ler0+
lpc_rms=-18.39
sample=Violin1Solo_sustain_FF_B4.opus
</region>

<region>
hivel=127
key=B5
loop_end=270832
loop_start=103271
loop_xfade=6750
lovel=0
lpc=w5bzQCO9n8CvcqBA0OasPqcV2z8RO4A+xvpOQA2z0r5nswpAoWfLP2vC5D7QhCtAHYmlvYTsHUAK1Tw/tBG3P4UICkD087u+r3NQQBrmzz5HBrM/316JPwFZUUAUShbA
lpc_rms=-23.07
sample=Violin1Solo_sustain_FF_B5.opus
</region>

<region>
hivel=127
key=B6
loop_end=270085
loop_start=102986
loop_xfade=6731
lovel=0
lpc=AAxKQYyZ6MCTjU9Aj4OaQOe3JMCYzn+9m7GWQJC6QL/JTp+/NPPvQBmTjb7fCbg+txYywSeruEDNCjs/k2OiwKYmU0ByEfk/UDBWwHZIYz8xAldAQpazwBtMBb/O5ytA
lpc_rms=-24.03
sample=Violin1Solo_sustain_FF_B6.opus
</region>

<region>
hivel=127
key=C#4
loop_end=273988
loop_start=104474
loop_xfade=6828
lovel=0
lpc=XuddQYuJFMKDWTdCfEAKwsmXikF2CBDBSyT+QLtR9sAdGotAfpxWPzxap8DaFbVAavEGwOfeCcDDeLFADH7CwDWnqUCr1I/AD/J6QC83vr9GEYa/51n/P+ob7L96pxE/
lpc_rms=-18.77
sample=Violin1Solo_sustain_FF_C#4.opus
</region>

<region>
hivel=127
key=C#5
loop_end=280786
loop_start=107066
loop_xfade=6998
lovel=0
lpc=LvbFQOw8UcGP2EFB7jXDwDuwREDzI3rA/7x/QETgGsCJmxg//v0DP4inRb8yvwI/6jXOPqYSSb+V6Lg/f97Ev2pHNj/jwgc+pukDvfI/D79wIBI/zM1VP3nV0L+IL4U/
lpc_rms=-20.70
sample=Violin1Solo_sustain_FF_C#5.opus
</region>

<region>
hivel=127
key=C#6
loop_end=274324
loop_start=104602
loop_xfade=6837
lovel=0
lpc=DnwZQR6J7MAJFchAGhC3vi1YBEAs9II/TgcrQI4KVD9LI6M/ScYrQDH5lD85rB8/TFxlQLpPzr2VkwlAuQLtPwt53D+kebc+MeVXQDGiij7KS0hANX6LwNColj/66ZU/
lpc_rms=-21.77
sample=Violin1Solo_sustain_FF_C#6.opus
</region>

<region>
hivel=127
key=C4
loop_end=265205
loop_start=101125
loop_xfade=6609
lovel=0
lpc=XYmlQdSZXsJZ2YZCNLdFwrsVrEGwgPLAgjEBQSQuDcESmq1A3whNv7RaWcDS4D1ACYe9PdY0hb5dh5w/L0x5wBcCmkAKxru/EKmAwEXPvUBOogC94oLbwLWF8kDo5E3A
lpc_rms=-16.06
sample=Violin1Solo_sustain_FF_C4.opus
</region>

<region>
hivel=127
key=C5
loop_end=270840
loop_start=103274
loop_xfade=6750
lovel=0
lpc=d+A0QQdct8F8IKxBRSJMwWmY60BT7MDAiZF+QKMfbcDsT2lAZuG/v3sFCL9yPn8/U/ATv+WSEj9YdYw/4WpDvlkWKsD8VzNAxEmEv7fqbj5q5Vo/5zsOwH+KB0DXCFQ8
lpc_rms=-21.39
sample=Violin1Solo_sustain_FF_C5.opus
</region>

<region>
hivel=127
key=C6
loop_end=272719
loop_start=103990
loop_xfade=6797
lovel=0
lpc=Irr4QNT2g8AqQYlAMyxIv2mvtz+PfMY+AL2kP/cJEz9qqsw+36jJP7k+Cj7kTJY//P5gP9w5rz52Dbs/DAOCPgVyoT8tQzs/FHsoP1JOej+J2xk/uuPmPxA6EcAVQQLA
lpc_rms=-21.75
sample=Violin1Solo_sustain_FF_C6.opus
</region>

<region>
hikey=E7
hivel=127
lokey=C7
loop_end=271652
loop_start=103584
loop_xfade=6770
lovel=0
lpc=B/pbQcfUhcAz/rQ/+dxMQLNh/r8J/idAgKYaPxCdAUCKJrA/Q1lUQICKoUCCjWvBatuOwO5P2UBexj3AxaFcQJsOuz+bTu0+6m+iPxoSxT3kHWI/JTl+wJY/vkDTJZFA
lpc_rms=-25.64
pitch_keycenter=C7
sample=Violin1Solo_sustain_FF_C7.opus
</region>

<region>
hivel=127
key=D#4
loop_end=278725
loop_start=106281
loop_xfade=6946
lovel=0
lpc=82PJQOz9c8FCvoRB5JQowYpQtkBZUK7AjeK5QE4AaMAdQ14/uuydP5IQEcB2X+8/45Qhv7VR6r5PwgBA5O1BwKrdF0CSLou/OQQJP8ZkMr82cTM/0ED7vhqlIT8EjKO+
lpc_rms=-25.60
sample=Violin1Solo_sustain_FF_D#4.opus
</region>

<region>
hivel=127
key=D#5
loop_end=279197
loop_start=106461
loop_xfade=6958
lovel=0
lpc=f4WRQIy4D8GgeQFBTkZ/wBoMHkCl4G/AWFqLQNC/VcDGLApAtCwfv6e1xL4C2+g+1RyePm1for7JPHo+TGCSPkIMHb9t3QI/mcDdPVI3Or+vDjU/UlU5vlNFZD0eP50+
lpc_rms=-25.26
sample=Violin1Solo_sustain_FF_D#5.opus
</region>

<region>
hivel=127
key=D#6
loop_end=273843
loop_start=104419
loop_xfade=6825
lovel=0
lpc=7JvXQHGlbsDPkjRAQXiVP17LxD8ehIc+5VCxPx8KPD82Atw+q2z4Pyg3or73mNc/tgoRP3owcj9U/U8/i9qUP1hTOT8QC2o/5s2pP1PQh8AKBJ8/HQZ1P1aR0b/kohu+
lpc_rms=-20.19
sample=Violin1Solo_sustain_FF_D#6.opus
</region>

<region>
hivel=127
key=D4
loop_end=273004
loop_start=104099
loop_xfade=6804
lovel=0
lpc=v0YOQQY/w8FLQP9BHMfSwXXvcUGyNPvAW2WrQLbmhsAxEWNAxi3fvw/0nr8a8zRA1r+1v5n8GsDQaqRAhCWnwBA+ZEDQm7u/ZEYxP77wJr8PsQ++8XWzP3SF1L8TslQ/
lpc_rms=-22.01
sample=Violin1Solo_sustain_FF_D4.opus
</region>

<region>
hivel=127
key=D5
loop_end=293410
loop_start=111880
loop_xfade=7312
lovel=0
lpc=3EulQK4dLMFbKh9BEyelwE7BOUATKGjAHDR5QCFhJsAkII8/vUqbPuaO+76TOEw+ooslPtUo/L4ZuM0/uKrGvwUr5z73fBc+4gVEPgj0t75e2qa+0EV3P/3Cgb8FNkE/
lpc_rms=-22.45
sample=Violin1Solo_sustain_FF_D5.opus
</region>

<region>
hivel=127
key=D6
loop_end=272782
loop_start=104014
loop_xfade=6798
lovel=0
lpc=yxcrQa0D4cC3MYpAOBiUPznsZz+cWyU/aThwPwt2kz/xpto9UVDMPxA/Oj50nqE/Dx6MPyho6T2WWMc/B+TcPrtSjj/CZCY/b7IDP5MJOEBLjQHBuz3WP/oe0D+dRgrA
lpc_rms=-21.42
sample=Violin1Solo_sustain_FF_D6.opus
</region>

<region>
hivel=127
key=E4
loop_end=286496
loop_start=109244
loop_xfade=7140
lovel=0
lpc=qCe3QDPuV8FJ1GVBj7cEwVzBTEAKeSfAxU80QHoY3r+PRnA+4zwBP+Pcg79U6n0/9F4VvncxNr93r9Q/5KYAwJuv3z8OE0S/g9+AvjAHUj/hnQ+/T8k1vsd1HT+uybC+
lpc_rms=-26.76
sample=Violin1Solo_sustain_FF_E4.opus
</region>

<region>
hivel=127
key=E5
loop_end=274332
loop_start=104606
loop_xfade=6837
lovel=0
lpc=CFCuQAMZH8GazRNBta6EwF42E0ALFi/AgxU+QMkgCsDQuaI/pLnnvQ5WZb72oge+5VwuP+Xfgb++4tE/BeZGv8VBo71zQyI/qGE0Phnayb1t1Hc+O3SNPz2ozb+FK7E/
lpc_rms=-24.16
sample=Violin1Solo_sustain_FF_E5.opus
</region>

<region>
hivel=127
key=E6
loop_end=273025
loop_start=104107
loop_xfade=6804
lovel=0
lpc=fEPYQCT9g8C2smdA0KnAP0pbMT+aHRY/kDJDP5oaOj/z5Xs+nPuXP7pyjz47sDM/+Y1SP1OEAj/6n0k/Ykg0P7T8CD8o7HI/XOSnwCr4OUAVwpK/HlnUv2y9BLwowPO7
lpc_rms=-24.12
sample=Violin1Solo_sustain_FF_E6.opus
</region>

<region>
hivel=127
key=F#4
loop_end=269960
loop_start=102938
loop_xfade=6728
lovel=0
lpc=4CMPQap/qsHsyrtBivJ2wQ+P/EAYpcbANGrDQFsUhMD/dE0/AzztPxPES8A+LiNAOUCWv0Wtqb8xs5NAl5m+wMdxhEDd0BfADIr6P7OT+7+3wPA/4yWAvwPpuD4747s+
lpc_rms=-22.77
sample=Violin1Solo_sustain_FF_F#4.opus
</region>

<region>
hivel=127
key=F#5
loop_end=272717
loop_start=103990
loop_xfade=6797
lovel=0
lpc=e7YiQGskcsD482tAdsPkv7FjFz/fm9q8/02XPkNl9b0Xrrk9TTUAP3oOEb8BQQY/C8+zvEiZmb4dkkM/JCTSvvuJAj9mcwO+zUbvPpiLqr5h17o+/BPYPYfEGL6Rbcw+
lpc_rms=-24.79
sample=Violin1Solo_sustain_FF_F#5.opus
</region>

<region>
hivel=127
key=F#6
loop_end=266499
loop_start=101619
loop_xfade=6642
lovel=0
lpc=x1HKQIa0R8D/jjBAIHGDP73Wp7+HigI/193MPGO4YD7MtsI+QosXPxfVFT9BxQQ/FnEZP/RpBj+FUMc+3X+gPxLvqcA+1ec/8E3QvoyK1r8/LfE/2s2BPi6Kmj6uGB4/
lpc_rms=-27.89
sample=Violin1Solo_sustain_FF_F#6.opus
</region>

<region>
hivel=127
key=F4
loop_end=272583
loop_start=103939
loop_xfade=6793
lovel=0
lpc=mpr5QJXok8EUB5pBMD0wwfXth0Dq8n7A7IepQIOensBCqENAXjIsvx6ai7/c9DQ/VI9FPwQm7L9PMRdAXjfEv9fuqD4rk649Wvo7vo+vjj8ZGtO/0yMWP7iNET+JF4S+
lpc_rms=-22.43
sample=Violin1Solo_sustain_FF_F4.opus
</region>

<region>
hivel=127
key=F5
loop_end=278091
loop_start=106039
loop_xfade=6930
lovel=0
lpc=jKZNQOnpjMB9J3ZA5tW7v+GNQz+Ewa09fYgbvoLGhT6xS/W+Rs2APykTMr+q85A9reQHP50QSr8KMoc/t8aBvqJwsT3rV7o+aUV4PcvrHT87v2y9IAmxPW+fOz4o9dY+
lpc_rms=-22.26
sample=Violin1Solo_sustain_FF_F5.opus
</region>

<region>
hivel=127
key=F6
loop_end=278659
loop_start=106255
loop_xfade=6945
lovel=0
lpc=rnLnQEL0lsAHNodA5W+pP4M45j4a7pU/xD2yP+KwSz+NyMw+3peYPycG2D5KOCg/iliKP+uNsD6RqHs/AfcgP7kLjz8g7L3AtK94QMcW7r+bHtG/bJ07P0t0R7/LaL++
lpc_rms=-22.43
sample=Violin1Solo_sustain_FF_F6.opus
</region>

<region>
hivel=127
key=G#3
loop_end=271132
loop_start=103385
loop_xfade=6757
lovel=0
lpc=1NFcQdrmC8JFfSpCh6kHwmPqm0GYYizBT5QBQapu3MCvPoVAM56bvtOlCMBBIAJA0uaWPRtBZ8AhU9pAMYn7wIlk1UBUp4jA/Co9QArNBsAtIhg/C6B5PmFBST2gVK8+
lpc_rms=-18.62
sample=Violin1Solo_sustain_FF_G#3.opus
</region>

<region>
hivel=127
key=G#4
loop_end=274644
loop_start=104724
loop_xfade=6845
lovel=0
lpc=V/uCQaf3HML/jSlCVG/awdM9X0GP8DjBML4qQQG558BVki1AvzaZPzezT8DFQAtAYLM2P/WgFsApTKtAOOnowGUmq0Bz1CPAkGZKP459BT6r/4+/sjjjPzG72r+m4sI/
lpc_rms=-16.47
sample=Violin1Solo_sustain_FF_G#4.opus
</region>

<region>
hivel=127
key=G#5
loop_end=275047
loop_start=104878
loop_xfade=6855
lovel=0
lpc=MImWQHoS7cBQyfRAUWaFwOduHEArbBW/ZkdoP1YKTL+JXms/mC61PmMo8r3Kgxc/NuahvrlW6T5IT5o/Cmn8vn5BJD40rYo/ViTSvuCZmz+Gp0K/uSu9P7iUu78bXM8/
lpc_rms=-19.59
sample=Violin1Solo_sustain_FF_G#5.opus
</region>

<region>
hivel=127
key=G#6
loop_end=269833
loop_start=102890
loop_xfade=6725
lovel=0
lpc=ddQ8QXFqBcGQma9ALEAMQDv7FEB+l6w/rJQDQEMvEL4Taqk/RdCAQIlbcD+HEwdA9SjDP1R3cEDi6PbAqYQoQDWwg0A134vAVxDqP54Vqr/7mCI/rSjZP58jTT84EJO/
lpc_rms=-19.58
sample=Violin1Solo_sustain_FF_G#6.opus
</region>

<region>
hivel=127
key=G3
loop_end=274947
loop_start=104840
loop_xfade=6852
lovel=0
lpc=LFsmQc3w4MGcJRBC0SXhwXcoeEEjwA/BBzb6QO39+8Aij9VAM5xOwKvm/b/lLH5A2KXbvwTO57/Dh1hA3fxVwHYlakB/GDPACqBvP1EP1D4YjKA+nFTJv6GG4j+lyQi/
lpc_rms=-19.81
sample=Violin1Solo_sustain_FF_G3.opus
</region>

<region>
hivel=127
key=G4
loop_end=278849
loop_start=106328
loop_xfade=6949
lovel=0
lpc=1goAQXcfnMFVCqhBY71Swf/n1kDkzsPAkxjDQFLNWsCtHMM+7dzZP6knEcA1JbA/R+Ckv33nVj/1wLs/Q4tawPfFaEB2SxDADjUDPzwKbj55qjS9njcHv4FYMz/lPbm8
lpc_rms=-22.05
sample=Violin1Solo_sustain_FF_G4.opus
</region>

<region>
hivel=127
key=G5
loop_end=275209
loop_start=104940
loop_xfade=6859
lovel=0
lpc=RytUQK58o8D385lA+aYRwPn5lD/z202/R4+zP44Gub89coE/b+exPr6S9r6fZtM+QALjPsDVCr9wWyw/+mBoPrtUbL7vbIA+oj6kPpeuIj4TPyS+XQySP3oGi78oykg/
lpc_rms=-22.03
sample=Violin1Solo_sustain_FF_G5.opus
</region>

<region>
hivel=127
key=G6
loop_end=266241
loop_start=101520
loop_xfade=6635
lovel=0
lpc=cxksQaT+1sAlG4BAyojRP7EQ/T+pI/A+FPUXQHTr+r1AIBU+WxEUQFgZ8D/aGI8/9n4EQGamrD/q4lBAlRb5wMY8ZUAQGAdAz4QEwDwRYD83fvg+058Gv8jpwz9tNNA/
lpc_rms=-19.82
sample=Violin1Solo_sustain_FF_G6.opus
</region>
</group>

<group>
amp_veltrack=0
ampeg_attack=0.02
ampeg_release=3.50
group_label=Fall_Releases_0-42
lpc_hicc1=42
lpc_locc1=0
offset=9600
rt_decay=0.000000
trigger=release
volume=-9.0

<region>
hikey=a3
hivel=127
lokey=g#3
lovel=0
lpc=vHqsQShqZcJNhHFCoCPUwep5XcB9G8VACGFkQJp8oMD6Atq+JeFzQDFvjcAesWJAhNyGwBBPG0Do0s1A5FZcwRskOEE7lIbAs2zFPj9KgEAY5g3BC8z7QGNPWcC+xFI/
lpc_rms=-33.93
pitch_keycenter=a3
sample=Soloviolin1_Fall_PP_A3.opus
</region>

<region>
hikey=a4
hivel=127
lokey=g#4
lovel=0
lpc=VNXSQT9dhsIZ5YlCvwABwms2YECPFbm/ZjSpQG+uIsCrtBLAA+/YQI3v4MBxfL9AqNsBwXdnoj/wyxtBJoQPwd/5vj6Gq6ZA85gJv1IbOsA3+mnAafhkQTyye8EY1sxA
lpc_rms=-31.67
pitch_keycenter=a4
sample=Soloviolin1_Fall_PP_A4.opus
</region>

<region>
hikey=a5
hivel=127
lokey=g#5
lovel=0
lpc=ESRjQVQymME9pW5BGwg8wNHVdUCtt/+/hYVkP4xAp0CmCx3ADqlYQB0CHb8Nc2tAQdoIwL6yoEDg32O/VLYuPoDRmEC/7zbAvOaBQDYy1D6HwCNA9DZYwK/Oz0Cjpho+
lpc_rms=-32.58
pitch_keycenter=a5
sample=Soloviolin1_Fall_PP_A5.opus
</region>

<region>
hikey=E7
hivel=127
lokey=g#6
lovel=0
lpc=+y6dQawUcsFBrr5AnPaHQP1EOkBPRz7AWO+qQBKgIkB5HsG/YkLPQCuxgEDxUyy+iWX7P+DRF8C+B1bBPK1mQYiAnsBsejzAdhFSv1cqZUCouITANEyOv+kATUDdrOzA
lpc_rms=-31.65
pitch_keycenter=A6
sample=Soloviolin1_Fall_PP_A6.opus
</region>

<region>
hikey=b3
hivel=127
lokey=a#3
lovel=0
lpc=PdAAQrpqpsLFe6FC7bDxwViTb8AwGBs/AqMdQbRnEMGUIUdAggFVQBcx+MDnrJ9A4ARWvzCXM78keHlApERwwBmCw7+loYtA09cfP+Nf/LwECd7AfWC9QHpHGr/mnym/
lpc_rms=-32.54
pitch_keycenter=b3
sample=Soloviolin1_Fall_PP_B3.opus
</region>

<region>
hikey=b4
hivel=127
lokey=a#4
lovel=0
lpc=vVqkQRdKXcIeNXNCrtUEwjjwTEHgTlnBO6pIQVv6i7+w07vAnnLzQK6kJME2ID1BXF4JwdUNVL9zPwdBnfrewLXZnT8MPipA1xpcwEN/zUD3xE7BGTyFQXiKPMFNo3xA
lpc_rms=-31.91
pitch_keycenter=b4
sample=Soloviolin1_Fall_PP_B4.opus
</region>

<region>
hikey=b5
hivel=127
lokey=a#5
lovel=0
lpc=DfIRQUqZKsHfNfZA9WBVwHo3NUAJ3Ne/CB/UP6Dci79Vt8k/pjp4vp4gsT8K2ve/Jdw4QNJ85L/ELeA/vOdSvxO8uz9ozaa/VPsVQGmPuL9y7dw/3nfVv61RY0CriY3A
lpc_rms=-40.54
pitch_keycenter=b5
sample=Soloviolin1_Fall_PP_B5.opus
</region>

<region>
hikey=c#4
hivel=127
lokey=c4
lovel=0
lpc=xGhCQi0gAcPk9gND3U14wh9vtkARdJpAgtKsPqpkIz3VwTC/I8tsQB49BMHdwQ5BO9jxwOAGVsBS08ZBy8DdwR7iP0G0NNg/AX/Ev2tr27/xOEDAO21fQMAnXsCSrDNA
lpc_rms=-26.82
pitch_keycenter=c#4
sample=Soloviolin1_Fall_PP_C#4.opus
</region>

<region>
hikey=c#5
hivel=127
lokey=c5
lovel=0
lpc=fZ8iQdHnxMFHS9VBxe2Gwfz070DjYJDAZtHnP1iaREC2gJrAJNqaQKTLYsBuSkQ/6/X/PyYMdsDzNZRAf1mlwE8jskDDVpjAK56JQGfDMcBUul+9cOUIQAssE8DuSqU/
lpc_rms=-34.25
pitch_keycenter=c#5
sample=Soloviolin1_Fall_PP_C#5.opus
</region>

<region>
hikey=c#6
hivel=127
lokey=c6
lovel=0
lpc=4TBWQfFGkcHR2VVBgH/VwJi1jUA9Pra/AokmQKAK8r+hDjBA1AQDv+JLDEBEgQfAd/xtQPyiCcCHt1VAwn0JwOiCJ0DZuDm/um4HQOYzjb9DTIVAnns0wROe+0DrL0G/
lpc_rms=-36.11
pitch_keycenter=c#6
sample=Soloviolin1_Fall_PP_C#6.opus
</region>

<region>
hikey=d#4
hivel=127
lokey=d4
lovel=0
lpc=QbNEQZ769cHm6+xBSz0zwdaNEcDF2zNAqR+VP3earL8jMxbAJCXFQA8+6cCkac9ApdO3wHZiJUCeYgdAEg1GwKx+Wj8O7DY/W8nNvtsWmz+SsyLAHCeYPu7MI0Ajm7W/
lpc_rms=-38.53
pitch_keycenter=d#4
sample=Soloviolin1_Fall_PP_D#4.opus
</region>

<region>
hikey=d#5
hivel=127
lokey=d5
lovel=0
lpc=Opv9QFMbmcH9EKBBFmQpwf+ziUDHC9/AKF4nQd2/z8BjiUG+EaAyQPc9tr8uaVA/db4FwL88RUBXA02/QS6ov2LnLT5snnA/rjW2P/edQMAtpso+a1U/QIV2KsDwpIQ/
lpc_rms=-32.54
pitch_keycenter=d#5
sample=Soloviolin1_Fall_PP_D#5.opus
</region>

<region>
hikey=d#6
hivel=127
lokey=d6
lovel=0
lpc=pdeSQWaGyMHWx2BBlXKAvY+yvT9zQ3q+2CEEQM+CI7/GEEtAOWoZPuYXIEAUwVQ+HYc+P/G3TUAeHb+/Kzp/QLddvD5/QS0+wdSpPznyQsGBU4lB4gmBwLpwl8A+7FpA
lpc_rms=-31.32
pitch_keycenter=d#6
sample=Soloviolin1_Fall_PP_D#6.opus
</region>

<region>
hikey=f4
hivel=127
lokey=e4
lovel=0
lpc=9umoQbNPYMKmZm5CiGznwVmOaL9k2b5AAkimQECqK8GXD6tAyguiQPvtFcHZsIZAVcsjPpculsDeShNB7nXpwG0wdkAzHArAmQk9QMRtv78N2zXA6iw/QJfeqr/yuTU/
lpc_rms=-33.05
pitch_keycenter=f4
sample=Soloviolin1_Fall_PP_F4.opus
</region>

<region>
hikey=f5
hivel=127
lokey=e5
lovel=0
lpc=t+sAQVANbMF7LDlBI82XwALyRECmhLTA8TvZQFBgSsDkhZA+/YgEQMlMnL/sTle/SpNqP7Ngl7/AMAFAZbG2vlImMD8vNPG/Q6FKQA6GxL/LHZG+iEsCv7XkMD8EvYY/
lpc_rms=-38.24
pitch_keycenter=f5
sample=Soloviolin1_Fall_PP_F5.opus
</region>

<region>
hikey=f6
hivel=127
lokey=e6
lovel=0
lpc=EH33QGCSEsHSpeFAbB63vyyr4T9Nmna+yIm7P3gx9j510XU/Cw2zPzkNQz9RgxQ+76XeP9pW7D6Mfec/TbQgv3/AI0Da/cvAs7DvQNUkOMAxF6O+mYACPymxGT/yQwM+
lpc_rms=-36.31
pitch_keycenter=f6
sample=Soloviolin1_Fall_PP_F6.opus
</region>

<region>
hivel=127
key=g3
lovel=0
lpc=v5WWQS3SQcJ9hEFCYGSQwaSks8DPUeRAYB8ywK+qhUDQc27Ai2zSvq17VL+aCzlADbIrv4MbWsCLDN1ARLvowCtdr0DC/IvAIgmsQEofkcB3sVQ/tzokQHZeM8DCE5w/
lpc_rms=-39.66
sample=Soloviolin1_Fall_PP_G3.opus
</region>

<region>
hikey=g4
hivel=127
lokey=f#4
lovel=0
lpc=MVeoQSHbZsJMGndCXfjgwUVA2T/kW+C/jhwGQWf/2cB+GHI/v23AQDHhE8Exb6xARYkewLwjVD9sdxJAUoHtv5SalL/6olJAwusdwDapDD/vWETA5HXoQPMO1cB4+S9A
lpc_rms=-33.05
pitch_keycenter=g4
sample=Soloviolin1_Fall_PP_G4.opus
</region>

<region>
hikey=g5
hivel=127
lokey=f#5
lovel=0
lpc=wChPQZYov8EJ26BB2dn+wF05mECu7QfBWx5kQcqLJcFWSnlAptewvwNrFUDN3AJA+VV2wAtbIEApW4w/rwYwP3kSj8B259RADbgYwMVvQECh+MTAiUzhQLleg8DsE1ZA
lpc_rms=-32.42
pitch_keycenter=g5
sample=Soloviolin1_Fall_PP_G5.opus
</region>

<region>
hikey=g6
hivel=127
lokey=f#6
lovel=0
lpc=7neWQYerMsFBhpi/GFTRPyeeVT+K4o5AxzCgP+J+qj8JikQ+YObbPw61rD+iQio/2KgeQH0GSb/g0ppATIxGwf2aCcCw2SxB++srwFFjKkAqUzPAmiD5v03Nkj9OFHu+
lpc_rms=-33.16
pitch_keycenter=g6
sample=Soloviolin1_Fall_PP_G6.opus
</region>
</group>

<group>
amp_veltrack=0
ampeg_attack=0.02
ampeg_release=3.50
group_label=Fall_Releases_43-84
lpc_hicc1=84
lpc_locc1=43
offset=9600
rt_decay=0.000000
trigger=release
volume=-9.0

<region>
hikey=a3
hivel=127
lokey=g#3
lovel=0
lpc=DgaMQcLWPcJNIllCVhf2wYXEhUAMso5AV5Nyvu4PIMCmqL4+yz0BQL2KVsDMUJtAQ6zjwNxpYEDgacNAQdI5wUo/CEEBc9K+m9pCwOUw5D5lgopANvEAwW0R10Cinva/
lpc_rms=-27.53
pitch_keycenter=a3
sample=Soloviolin1_Fall_MF_A3.opus
</region>

<region>
hikey=a4
hivel=127
lokey=g#4
lovel=0
lpc=8qdPQXJ+B8KqNhhCc9S0wXPl90B1rp/AKH7AQB6ci8BnHipAP+dJv6ssK8CR3adAg6+zwOHPAUA7vkBASWKzwL65wkD0h3/A+fy6P9r0sT84KF/A0utfQPOB/b8RZyQ/
lpc_rms=-24.43
pitch_keycenter=a4
sample=Soloviolin1_Fall_MF_A4.opus
</region>

<region>
hikey=a5
hivel=127
lokey=g#5
lovel=0
lpc=EEj3QIFvBsHlXvRA/VgOwPdROEA+XpS+vaeTP5tJDUBysWu/SPEkQCglC74iuSpArGjwv8UrbEAV7nA+m/RZv7Pei0BYp9u/4YD6P+SrWT9v6cI/0NcCPzs1mr2W11BA
lpc_rms=-24.54
pitch_keycenter=a5
sample=Soloviolin1_Fall_MF_A5.opus
</region>

<region>
hikey=E7
hivel=127
lokey=g#6
lovel=0
lpc=kNBZQcfcB8HPg75AVUdqQILR7T8y+vk/YvqXQCjA0D8oPQdAWZaxQJ1UnUDKk5A/JHWuQE4ZrMDrjh/AIp0FQTk6nMDtuQc/bGJ8P/SCmL/Okks/4APQv90OB0CBmZ3A
lpc_rms=-26.01
pitch_keycenter=A6
sample=Soloviolin1_Fall_MF_A6.opus
</region>

<region>
hikey=b3
hivel=127
lokey=a#3
lovel=0
lpc=yGDmQbtxoMKb67NCvv84wtcye79pJHFB3LNqwBAz1MCm0p9AlxEFQMXl28A2pAtBBJhCwd93GEGJq4RA3qJ9wcrDkUHjjCPBVMCSv+sKA0HhNKzA7x7EwFZHKUHrmYXA
lpc_rms=-21.05
pitch_keycenter=b3
sample=Soloviolin1_Fall_MF_B3.opus
</region>

<region>
hikey=b4
hivel=127
lokey=a#4
lovel=0
lpc=be43Qfac7cEqAgZCwcOvwaJcR0F+lz3BE88sQU/jo8AFNi8/DohaQIFW38Bji9JAW7J2wGBVMD8luco/IrwMwHujmD9uSus/TaFYwOysVEC1E2PA4LtbQFDOBMCwcVw/
lpc_rms=-24.95
pitch_keycenter=b4
sample=Soloviolin1_Fall_MF_B4.opus
</region>

<region>
hikey=b5
hivel=127
lokey=a#5
lovel=0
lpc=wn0vQfa5SsEK4jZBT5KjwOaOpUAo2DXA48tfQKPxUL5OXgZAhZE9v3srZUDfsfq/C8JeQNhdzL8cD4RARbAJwMWSYEBa2Jq/0P0GQP5y8zwsZzZAn3vzv9PyeUDhKFrA
lpc_rms=-23.81
pitch_keycenter=b5
sample=Soloviolin1_Fall_MF_B5.opus
</region>

<region>
hikey=c#4
hivel=127
lokey=c4
lovel=0
lpc=bjjsQa2YoMJetLJCeA1PwjbuVUG3WiW+r+KrP4ElVcBhY2xAKZELwIbC57+B8fBA4/oywSOvjkDjHRVBlRpYwXT7LEGofwHB5bjoQOnwmsCNQjU+1nenPtvhmr6vxSQ/
lpc_rms=-18.08
pitch_keycenter=c#4
sample=Soloviolin1_Fall_MF_C#4.opus
</region>

<region>
hikey=c#5
hivel=127
lokey=c5
lovel=0
lpc=zesIQRJRm8GHwppBMpApwVUqm0Af1crA4l31QCylq8BZr7o/wxswQIDIucCIO/dA8DrEwO9pdkDnNhrAbvGCP+vOvL7Sux6/LgsTQOYEVMBkUydAJO9Jv6PSqD7v5YQ9
lpc_rms=-25.92
pitch_keycenter=c#5
sample=Soloviolin1_Fall_MF_C#5.opus
</region>

<region>
hikey=c#6
hivel=127
lokey=c6
lovel=0
lpc=7qZIQaNGdcGcNTRBmA7WvyYzxL5vGw5AHWs4PrigJkAuPyy/oAicPLdqjkDm/uK/s7usPycozj/sPZ4/MK6pPUxUUT6N30NAvvhWvkw/wr7CJINApLgVwV2N1kAYgK2/
lpc_rms=-24.66
pitch_keycenter=c#6
sample=Soloviolin1_Fall_MF_C#6.opus
</region>

<region>
hikey=d#4
hivel=127
lokey=d4
lovel=0
lpc=NdkdQYSbzMGL+uBBet11wS3JxT9pjFxAQOGOvxlwv7+7WXw/2X60PyXpgMBOWaJAEhl7wCXDqT5ChlxAPI2VwIlrj0BXDXXAuA0nQDT/+L7DD4+/oBLfPR+IiT96jqK+
lpc_rms=-29.57
pitch_keycenter=d#4
sample=Soloviolin1_Fall_MF_D#4.opus
</region>

<region>
hikey=d#5
hivel=127
lokey=d5
lovel=0
lpc=NvjWQBDFecGSmYFBUaQXwb+WkEBuKJrAvXzhQF+w5cC/5bVA33lBwC4jpD5CZas/d+7Av2M8qT/nkWO/II6BP3T80785faE/BqFcPyXZib/zSLy+oZ42P5xhn7wkvrw9
lpc_rms=-26.55
pitch_keycenter=d#5
sample=Soloviolin1_Fall_MF_D#5.opus
</region>

<region>
hikey=d#6
hivel=127
lokey=d6
lovel=0
lpc=Tg6OQYHPvMFLSX9BAbP0v3bggkCxkB+/2PvEP9K00T9DR4FA/98Wv3DJZkCD1Mw/xKhXv7ez2ED7pSLAyOiLQCyx9D8Myfa+r2evQLR+RsFM4jBBv3teQAllC8FaRZhA
lpc_rms=-21.60
pitch_keycenter=d#6
sample=Soloviolin1_Fall_MF_D#6.opus
</region>

<region>
hikey=f4
hivel=127
lokey=e4
lovel=0
lpc=Z01kQaqpEsLIdxxC+aCmwS83KkDx8EJA3frxvhapD8CAZQZA5f94PyPIS8CcyzFAo8sowAAyyT2zxoFAAv7NwHyX1EBiQp3AhepzQDivF8DLRYg/dc0sv0AtY769kSI/
lpc_rms=-22.94
pitch_keycenter=f4
sample=Soloviolin1_Fall_MF_F4.opus
</region>

<region>
hikey=f5
hivel=127
lokey=e5
lovel=0
lpc=WVmpQARqIcGpLgJBC/IPwIcymD7xwda/UowzQF59IsC+mOg/yRpmv31k/z55d8I+vnwHv4LB+76IpN0/NS2AvwbhIj8snvK/2Q1AQFAsjb9GOVq/3AKtPxPkn770ihc+
lpc_rms=-28.51
pitch_keycenter=f5
sample=Soloviolin1_Fall_MF_F5.opus
</region>

<region>
hikey=f6
hivel=127
lokey=e6
lovel=0
lpc=pugcQQoAFcEA9LtAFg3lP/0urr/raBVAl128P0uxqz/sSBVAYrHUPzYuAUB2wLo/dWD9P7RIIEBBnGw/08JUQHQJy767kpvAJUMRQc2DbsBVg10/c3MPQGdOlD1wW1o/
lpc_rms=-27.51
pitch_keycenter=f6
sample=Soloviolin1_Fall_MF_F6.opus
</region>

<region>
hivel=127
key=g3
lovel=0
lpc=wH6XQXWSU8I00ndCcAYPwlIZtkAZ3Y1AsOJRvsrPi8Ah1L9AvsiXwF4+oL8oyh1AiZ2vQKIEQsEXLSdBl1UzwNuvUcAg5xxAcEMvQI25jMB97Rs+0HHSQL1wBMGEMmhA
lpc_rms=-27.20
sample=Soloviolin1_Fall_MF_G3.opus
</region>

<region>
hikey=g4
hivel=127
lokey=f#4
lovel=0
lpc=4keKQWFJQsLEamVCFMIMwukOR0HjGAzBKw1MQYLiMMEX2NxAhQ/Gv2fv0MChZB1BmtqwwDClqb+iKp5Any6awA7ylkDhzGHAsAolP2JlREC+5OrA1FMIQW3xq8C/OPM/
lpc_rms=-22.91
pitch_keycenter=g4
sample=Soloviolin1_Fall_MF_G4.opus
</region>

<region>
hikey=g5
hivel=127
lokey=f#5
lovel=0
lpc=QtLPQPv0MMHFFAtB0aEhwF+rzD9ikErA8SeyQAJYosCosVJAeBH/viol1T4OQlw/HcbEv23UIT+/6vE/4TEQP7l5XMBF1l9AeGhTv/VXsD+0tgrAG+tRQLwVQcCe5CFA
lpc_rms=-26.22
pitch_keycenter=g5
sample=Soloviolin1_Fall_MF_G5.opus
</region>

<region>
hikey=g6
hivel=127
lokey=f#6
lovel=0
lpc=n9RRQYw1/8Co/rNAggYYPuPBfkDQD8Y/hLnZQD0ME8ByPIFASJ2hQDsu1D/4E6tATmgsQN5gdUCyVZ9AZUjswPck0kCuKQdA3zsDQKGZhz59qjhApUhiwHHxiECeGLQ/
lpc_rms=-24.09
pitch_keycenter=g6
sample=Soloviolin1_Fall_MF_G6.opus
</region>
</group>

<group>
amp_veltrack=0
ampeg_attack=0.02
ampeg_release=3.50
group_label=Fall_Releases_85-127
lpc_hicc1=127
lpc_locc1=85
offset=9600
rt_decay=0.000000
trigger=release
volume=-9.0

<region>
hikey=a3
hivel=127
lokey=g#3
lovel=0
lpc=caQhQSTrvMFihsNB97hjwZXjZkDiLRA/kmlwPi0GJL8Gi5C+X6l0P9QUAMA8ohBAdcS7vy2MMr/tLjBABww/wHQ3BkA/VS6/wMiCvgZdYD/I3A8+50ubvw+dIT+gxo8+
lpc_rms=-19.91
pitch_keycenter=a3
sample=Soloviolin1_Fall_FF_A3.opus
</region>

<region>
hikey=a4
hivel=127
lokey=g#4
lovel=0
lpc=umglQY4+vcGUTbtBCyBNwZNHuEDXSqvAt4ybQEIZFcDsk78+DJMDP8Vky7/LPdk/ysjvvzCYOT9AvAxABYORwPxZlkDK6DDACl8YQGht7r80SmE+zP5QPyZzN76Uolw9
lpc_rms=-19.59
pitch_keycenter=a4
sample=Soloviolin1_Fall_FF_A4.opus
</region>

<region>
hikey=a5
hivel=127
lokey=g#5
lovel=0
lpc=TPOaQJ9+n8DDMn5AwY5cvxRq/D+XmFu/DBOiPxUQhD7y2aA/SV14vbZOBT/mn4o/xvlcPp7e+T4atVA/SPyKPvmXoT/dLIW+4JZdP19zej8aZ6Y+V0+NPjxnuT6qyN4/
lpc_rms=-18.80
pitch_keycenter=a5
sample=Soloviolin1_Fall_FF_A5.opus
</region>

<region>
hikey=E7
hivel=127
lokey=g#6
lovel=0
lpc=nBEBQZREqcCA2ZBAH2PrP5smoT/EOL4/7UlsP9qIdUBGate8wlr8P1iIUkDwlqU+zGY+QGn6T8Di81G/YbiGQFghV8Ckp3k+X8NfP237o77ztKC9cjjRv+zADUB83AnA
lpc_rms=-18.89
pitch_keycenter=A6
sample=Soloviolin1_Fall_FF_A6.opus
</region>

<region>
hikey=b3
hivel=127
lokey=a#3
lovel=0
lpc=PQJ0QQ2cIMJPyDdCMTfzwfn3MEE5FhDAghBxQD14nsBzEMI/4vMTQAR6o8CmqMRArUt6wHsMMr+d9p5Ak6GnwKAFDEATGpE/ui0YwGbl4T+MIQY/J2wPwHASoj/8J8m8
lpc_rms=-16.44
pitch_keycenter=b3
sample=Soloviolin1_Fall_FF_B3.opus
</region>

<region>
hikey=b4
hivel=127
lokey=a#4
lovel=0
lpc=LwIZQR/Zr8Hgz6dByFEkwUOgWECeUSLA7ibdP42cKT/M2KO/QHXiP5sZV8AjyEhAwZJfv9P+B8A5bZRAyuG/wH5JsUBO/SDAiC/iPqmW0D7Kkqe/fOrzP9FK3L9fl40/
lpc_rms=-19.29
pitch_keycenter=b4
sample=Soloviolin1_Fall_FF_B4.opus
</region>

<region>
hikey=b5
hivel=127
lokey=a#5
lovel=0
lpc=Ica1QFQ9s8BXJ5NAVVfYv7aTGkDrSo+/xuSuP1GChj0WzIs/0BzgvIYDmT88UOy+XmDjP/ncRb/bGro/4Mj7PeibUj/y2uA9kNc5P9ImEz4gG80/4+t6v4Xf2T+uz+C/
lpc_rms=-19.34
pitch_keycenter=b5
sample=Soloviolin1_Fall_FF_B5.opus
</region>

<region>
hikey=c#4
hivel=127
lokey=c4
lovel=0
lpc=qXmDQbbyJsJDYDFC+IbHwXPqzkDDOAjARg2eQD3en8BT0IA/wwr2P/N3U8AxtJ9AkIO5wN4YMkDSPGVA+LrswKFmqkA0TYg+k/aEv+1Hvr++aGNApu2bwHagLkBOT42+
lpc_rms=-15.23
pitch_keycenter=c#4
sample=Soloviolin1_Fall_FF_C#4.opus
</region>

<region>
hikey=c#5
hivel=127
lokey=c5
lovel=0
lpc=+eoIQWPNmsGixZpB/jYowX1qjUC+h4TAJRaEQJT8NMDE2xVAm57sv1OojT1ISP4/ftSAv3ZL+b9YA2VAFbxIwPKDPEBu4CzAF8roP55J4r69V+e+mxeBPzJrd78p1VQ/
lpc_rms=-21.11
pitch_keycenter=c#5
sample=Soloviolin1_Fall_FF_C#5.opus
</region>

<region>
hikey=c#6
hivel=127
lokey=c6
lovel=0
lpc=Q/C5QEd7vMCXo55AkJcsv2fAWz90ah4/e+bXPnJAKD8reWo/mV8AvnJykj9U5wY/kPcfPzzA/z4zyjo/3l3jPjspdz/wGxU89xtIP8xvEz++71c/YfaDwM50bUAfk9K/
lpc_rms=-20.67
pitch_keycenter=c#6
sample=Soloviolin1_Fall_FF_C#6.opus
</region>

<region>
hikey=d#4
hivel=127
lokey=d4
lovel=0
lpc=hY3LQLpjdsE324hBfbo2wY+Tm0AXQLS/+2ZuPy93p7/deYY/7Vf/vo/InD1MtNc+9O5pv/jwlz6q6Yk/6oMYwDM9KEDVnIy/WrJzvv0lGD6tC4U//rbvvyhAkD/pVtG8
lpc_rms=-23.90
pitch_keycenter=d#4
sample=Soloviolin1_Fall_FF_D#4.opus
</region>

<region>
hikey=d#5
hivel=127
lokey=d5
lovel=0
lpc=PvidQO4HIsECYhdBKTOkwLatIECCmS7AxnxFQMs5+7+/H2U/89a+PjMup78X07s/P9Okv+JFVD9UKrY+z8wtvyO2+z6nJkq/u5TIP3k9mL9Vn+s+8N1Qvw7TxT/14yC/
lpc_rms=-22.92
pitch_keycenter=d#5
sample=Soloviolin1_Fall_FF_D#5.opus
</region>

<region>
hikey=d#6
hivel=127
lokey=d6
lovel=0
lpc=Wo3KQFTctMAY+IxAkNSUvk1W6D8Wbki+zg8GQEEObT4Ch8E/3oZlP/2qsz/wN+Y+yPzMP9K0PD+SFK4/4hwdP3Kv+z+81ak+uq6eP8R+SsAOjENAQCRsPnQ2p7+6nZI/
lpc_rms=-18.54
pitch_keycenter=d#6
sample=Soloviolin1_Fall_FF_D#6.opus
</region>

<region>
hikey=f4
hivel=127
lokey=e4
lovel=0
lpc=YS8QQYeWrsHb4bxBGpRvwRUppkA82bS/x8c2QDUNgcAv6O0/3+4SQDLklsAPFnVADwm9v9/GYr9hIsI/xQW+v/dkwz/HZnW/y8JoP81TUL9JY5E/MT92vx4b1L5a+EI/
lpc_rms=-19.34
pitch_keycenter=f4
sample=Soloviolin1_Fall_FF_F4.opus
</region>

<region>
hikey=f5
hivel=127
lokey=e5
lovel=0
lpc=NjiGQBX8+8DRPdZAlhMLwMJt5D78TYS/LTmjP7OHo77wFRO/wWSkP50Vl79KjA4/EgcrP/OYm79JpnA/BJeVPaJpj71arZS+t/jSPtnsDT83uiK/+KV+PuhTxD4RfE69
lpc_rms=-24.42
pitch_keycenter=f5
sample=Soloviolin1_Fall_FF_F5.opus
</region>

<region>
hikey=f6
hivel=127
lokey=e6
lovel=0
lpc=PMu8QGLWtsBlTI1AMlpyv7m1nD8zQKU+SeHKP4UXID4uGaQ/0PB7P5VVDT+jfZs/bx+VPwm7Qj8BDDM/KADRP8XxQD3EgzrAIytxQE7/aL9q2L0+um9bP6q8K78kY1I/
lpc_rms=-20.94
pitch_keycenter=f6
sample=Soloviolin1_Fall_FF_F6.opus
</region>

<region>
hivel=127
key=g3
lovel=0
lpc=y+h+QYcXKsK9i01CTFkcwm1Pn0G6PbnAoN7fP91BacCc55FAmmYKwCHU278EYzZANlRtP3NU4cAUCA9B6FK3wMQmNUCjxWy/5dyZPoJks77H9n8/jnDcvzfUvT6DUj8/
lpc_rms=-16.28
sample=Soloviolin1_Fall_FF_G3.opus
</region>

<region>
hikey=g4
hivel=127
lokey=f#4
lovel=0
lpc=peE/QdGO9sGHcAZCLC2ZwdScq0D5UgjAYR5vQBjHTcAS7bQ/ZtONP4Rhj8DQKsFA8OTPwJWKq0DyOsy/WNQPwHi0UkCA5Na/iOVOPykCb76tuYS//ED4P0tVAMBvCpk/
lpc_rms=-19.00
pitch_keycenter=g4
sample=Soloviolin1_Fall_FF_G4.opus
</region>

<region>
hikey=g5
hivel=127
lokey=f#5
lovel=0
lpc=oWS+QLNCKcGLawtBs0olwLVynz7gyWm/bPUnQOvVor8IfmW/GGAhQFOYjr//LNM+QAY9P5YTD8CCgntA6TvYv1vymr6RP+O9hpQYQD0Ier/FWNm/ltV+QOY6YsCG8BZA
lpc_rms=-21.13
pitch_keycenter=g5
sample=Soloviolin1_Fall_FF_G5.opus
</region>

<region>
hikey=g6
hivel=127
lokey=f#6
lovel=0
lpc=uWkOQbaBisCmHYdAk9igP++me0Ao2HQ/NMmvQP39pD4K9SBAjxqHQDH3ZUBjkVxAQ+mJQA8wTUCrr5pAXrlNwHn+e0D1F0lAoVsTP3oerz8oNv8/xDxbv7WI0T9+MixA
lpc_rms=-19.19
pitch_keycenter=g6
sample=Soloviolin1_Fall_FF_G6.opus
</region>
</group>